/* XPM */
static char *kingpin[] = {
/* columns rows colors chars-per-pixel */
"32 32 5 1",
"  c black",
". c #008080",
"X c #808080",
"o c #C0C0C0",
"O c gray100",
/* pixels */
"                                ",
"            XoooooXX            ",
"          XoOOoOooOOOX          ",
"         XOoooOX   XXOX         ",
"        XOXooOX      XO         ",
"        XooooO        oo        ",
"        ooooOo        XO        ",
"        oooOXXXXXX   .OO        ",
"        ooOX   XoX    OO        ",
"        XOX     X     oX        ",
"  Xo     Oo    XOX   Xo     Xo  ",
"  XOX    XXX  XoXo  X       ooX ",
" oX Xo   XOOXoO   .  XXX  Xo XoX",
" XOX  o  XOoOOoXX   XOo  Xo XOO ",
"  oOO  oX oOooOOXO XOX  oo XoOX ",
"   XOoXXoX  Ooo.XXXOX XooXXOoX  ",
"    XOoX XX XOXo OoX  X  OoX    ",
"     XooX XX X XXXX Xo XoOo     ",
"     oo OooXo XXX  oOoXO oOX    ",
"     ooo OOoooOOOoXoOOOOoooX    ",
"     oOXXOOoXOXXoooooOOXXOO     ",
"     XooXXOOOX XoX oOOXXooX     ",
"      oOOoooX      XoooOOo      ",
"      OooOo          oOooO      ",
"     XOooOo          XOooOo     ",
"     oOooOX          XOooOO     ",
"    XOOoOO            oOooOX    ",
"    oooOOo            oooOoOX   ",
"   XoooXO              OXXooX   ",
"     XOOo              oOOo     ",
"      XX                oo      ",
"                                "
};
